<?xml version="1.0" encoding="utf-8"?>
<!-- Generator: Adobe Illustrator 25.2.3, SVG Export Plug-In . SVG Version: 6.00 Build 0)  -->
<svg version="1.1" id="Layer_1" xmlns="http://www.w3.org/2000/svg" xmlns:xlink="http://www.w3.org/1999/xlink" x="0px" y="0px"
	 viewBox="0 0 128 128" style="enable-background:new 0 0 128 128;" xml:space="preserve">
<style type="text/css">
	.st0{fill:#FFFFFF;}
	.st1{fill-rule:evenodd;clip-rule:evenodd;}
</style>
<path class="st0" d="M104,0H24C10.8,0,0,10.8,0,24v80c0,13.2,10.8,24,24,24h80c13.2,0,24-10.8,24-24V24C128,10.8,117.2,0,104,0z"/>
<path d="M104,8c8.8,0,16,7.2,16,16v80c0,8.8-7.2,16-16,16H24c-8.8,0-16-7.2-16-16V24c0-8.8,7.2-16,16-16H104 M104,0H24
	C10.8,0,0,10.8,0,24v80c0,13.2,10.8,24,24,24h80c13.2,0,24-10.8,24-24V24C128,10.8,117.2,0,104,0z"/>
<path class="st1" d="M98.6,53.9c-0.5-6.8-1.7-13.7-10.3-14.2c-16.2-0.9-32.4-0.9-48.5,0c-8.6,0.5-9.9,7.5-10.4,14.2
	c-0.5,6.7-0.5,13.4,0,20.2c0.5,6.8,1.7,13.7,10.4,14.2c16.2,0.9,32.4,0.9,48.5,0c8.6-0.5,9.9-7.5,10.3-14.2
	C99.1,67.4,99.1,60.6,98.6,53.9z M57,73V53l19,10L57,73z"/>
</svg>
