<?xml version="1.0" encoding="utf-8"?>
<!-- Generator: Adobe Illustrator 25.2.3, SVG Export Plug-In . SVG Version: 6.00 Build 0)  -->
<svg version="1.1" id="Calque_1" xmlns="http://www.w3.org/2000/svg" xmlns:xlink="http://www.w3.org/1999/xlink" x="0px" y="0px"
	 viewBox="0 0 190 30" style="enable-background:new 0 0 190 30;" xml:space="preserve">
<style type="text/css">
	.st0{fill:url(#SVGID_1_);}
	.st1{fill:#1D1D1B;}
</style>
<radialGradient id="SVGID_1_" cx="179.9992" cy="12.1285" r="17.2006" gradientTransform="matrix(1 0 0 -1 0 29.62)" gradientUnits="userSpaceOnUse">
	<stop  offset="0.22" style="stop-color:#0884C1"/>
	<stop  offset="0.64" style="stop-color:#254686"/>
	<stop  offset="1" style="stop-color:#254686"/>
</radialGradient>
<polygon class="st0" points="182.2,15.5 179.9,0.3 177.8,15.5 170.9,15.5 176.7,18.7 174.8,24.6 179.9,20.5 186.5,29.7 183.2,18.7 
	189.2,15.5 "/>
<polyline class="st1" points="143.9,14.5 147,13.1 147.5,14.3 144.1,15.1 143.9,14.5 "/>
<path class="st1" d="M135.3,16c-0.1-0.8-1-1.3-2-1.3c-1.8,0-2.5,1.3-2.5,2.6c0,1.3,0.7,2.6,2.5,2.6c1.2,0,1.9-0.7,2.1-1.7h2
	c-0.2,1.9-1.8,3.1-4.1,3.1c-2.9,0-4.5-1.8-4.5-4c0-2.3,1.7-4.1,4.5-4.1c2,0,3.7,1,4,2.8L135.3,16"/>
<path class="st1" d="M137.9,15.6h1.7v1h0c0.3-0.7,1.2-1.2,2.1-1.2c0.1,0,0.3,0,0.4,0.1v1.4c-0.2,0-0.4-0.1-0.7-0.1
	c-1.3,0-1.8,0.8-1.8,1.8v2.5h-1.8V15.6"/>
<path class="st1" d="M143.9,18.7c0.1,1,0.6,1.4,1.6,1.4c0.7,0,1.3-0.4,1.4-0.7h1.6c-0.5,1.3-1.6,1.9-3.1,1.9c-2.1,0-3.4-1.2-3.4-2.9
	c0-1.7,1.4-2.9,3.4-2.9c2.3,0,3.4,1.6,3.2,3.3L143.9,18.7 M146.9,17.8c-0.2-0.8-0.6-1.2-1.5-1.2c-1.2,0-1.5,0.8-1.5,1.2H146.9z"/>
<polyline class="st1" points="26.5,14.5 29.6,13.1 30.1,14.3 26.8,15.1 26.5,14.5 "/>
<path class="st1" d="M26.5,18.7c0.1,1,0.6,1.4,1.6,1.4c0.7,0,1.3-0.4,1.4-0.7h1.6c-0.5,1.3-1.6,1.9-3.1,1.9c-2.1,0-3.4-1.2-3.4-2.9
	c0-1.7,1.4-2.9,3.4-2.9c2.3,0,3.4,1.6,3.2,3.3L26.5,18.7 M29.5,17.8c-0.2-0.8-0.6-1.2-1.5-1.2c-1.2,0-1.5,0.8-1.5,1.2H29.5z"/>
<polyline class="st1" points="37.2,14.5 40.3,13.1 40.8,14.3 37.4,15.1 37.2,14.5 "/>
<path class="st1" d="M37.2,18.7c0.1,1,0.6,1.4,1.6,1.4c0.7,0,1.3-0.4,1.4-0.7h1.6c-0.5,1.3-1.6,1.9-3.1,1.9c-2.1,0-3.4-1.2-3.4-2.9
	c0-1.7,1.4-2.9,3.4-2.9c2.3,0,3.4,1.6,3.2,3.3L37.2,18.7 M40.2,17.8c-0.2-0.8-0.6-1.2-1.5-1.2c-1.2,0-1.5,0.8-1.5,1.2H40.2z"/>
<path class="st1" d="M154.2,20.4L154.2,20.4c-0.5,0.6-1.2,0.9-2.1,0.9c-2,0-3-1.4-3-3c0-1.5,1-2.9,3-2.9c0.8,0,1.5,0.3,2,0.8l0,0
	v-2.8h1.8v7.7h-1.7L154.2,20.4 M152.6,16.6c-1.2,0-1.6,0.9-1.6,1.8c0,0.9,0.5,1.8,1.6,1.8c1.2,0,1.6-0.9,1.6-1.8
	S153.8,16.6,152.6,16.6L152.6,16.6z"/>
<path class="st1" d="M158.5,14.7h-1.8v-1.3h1.8V14.7z M156.7,15.6h1.8v5.6h-1.8V15.6z"/>
<path class="st1" d="M24.3,14.7h-1.8v-1.3h1.8L24.3,14.7z M22.5,15.6h1.8v5.6h-1.8V15.6z"/>
<path class="st1" d="M81.3,14.7h-1.8v-1.3h1.8V14.7z M79.5,15.6h1.8v5.6h-1.8V15.6z"/>
<path class="st1" d="M95.8,14.7H94v-1.3h1.8V14.7z M94,15.6h1.8v5.6H94V15.6z"/>
<polyline class="st1" points="159.9,21.1 159.9,17 159.1,17 159.1,15.6 159.9,15.6 159.9,13.9 161.7,13.9 161.7,15.6 162.9,15.6 
	162.9,17 161.7,17 161.7,21.1 159.9,21.1 "/>
<polyline class="st1" points="32.3,21.1 32.3,17 31.5,17 31.5,15.6 32.3,15.6 32.3,13.9 34.2,13.9 34.2,15.6 35.3,15.6 35.3,17 
	34.2,17 34.2,21.1 32.3,21.1 "/>
<path class="st1" d="M2.8,19.2c0.1,0.2,0.3,0.3,0.4,0.4c0.2,0.1,0.4,0.2,0.6,0.3C4.1,20,4.4,20,4.6,20c0.2,0,0.4,0,0.6,0
	c0.2,0,0.4-0.1,0.6-0.1c0.2-0.1,0.3-0.2,0.4-0.3c0.1-0.1,0.2-0.3,0.2-0.5c0-0.2-0.1-0.4-0.2-0.5c-0.2-0.1-0.4-0.3-0.6-0.3
	c-0.3-0.1-0.6-0.2-0.8-0.2c-0.3-0.1-0.6-0.1-1-0.2c-0.3-0.1-0.6-0.2-1-0.3c-0.3-0.1-0.6-0.2-0.8-0.4c-0.2-0.2-0.5-0.4-0.6-0.6
	c-0.2-0.3-0.2-0.6-0.2-0.9c0-0.4,0.1-0.7,0.3-1c0.2-0.3,0.5-0.5,0.8-0.7c0.3-0.2,0.7-0.3,1.1-0.4c0.4-0.1,0.8-0.1,1.2-0.1
	c0.4,0,0.9,0,1.3,0.1c0.4,0.1,0.8,0.2,1.1,0.4c0.3,0.2,0.6,0.5,0.8,0.8c0.2,0.3,0.3,0.7,0.3,1.1H6c0-0.2-0.1-0.4-0.2-0.6
	c-0.1-0.2-0.2-0.3-0.4-0.4c-0.2-0.1-0.4-0.2-0.5-0.2c-0.2,0-0.4-0.1-0.7-0.1c-0.2,0-0.3,0-0.5,0c-0.2,0-0.3,0.1-0.4,0.2
	c-0.1,0.1-0.2,0.2-0.3,0.3c-0.1,0.1-0.1,0.3-0.1,0.4c0,0.1,0,0.3,0.1,0.4c0.1,0.1,0.2,0.2,0.4,0.3c0.3,0.1,0.5,0.2,0.8,0.2
	c0.3,0.1,0.8,0.2,1.3,0.3c0.2,0,0.4,0.1,0.7,0.2c0.3,0.1,0.6,0.2,0.9,0.4c0.3,0.2,0.5,0.4,0.8,0.6c0.2,0.3,0.3,0.7,0.3,1.1
	c0,0.3-0.1,0.7-0.2,1c-0.2,0.3-0.4,0.6-0.7,0.8c-0.4,0.2-0.7,0.4-1.2,0.5c-0.5,0.1-1.1,0.2-1.6,0.2c-0.5,0-1-0.1-1.4-0.2
	c-0.4-0.1-0.8-0.3-1.2-0.5c-0.3-0.2-0.6-0.5-0.8-0.9c-0.2-0.4-0.3-0.8-0.3-1.2h1.9C2.6,18.8,2.7,19,2.8,19.2z"/>
<path class="st1" d="M8.8,17.1c0.2-0.4,0.4-0.7,0.7-0.9c0.3-0.3,0.7-0.5,1-0.6c0.4-0.1,0.9-0.2,1.4-0.2c0.5,0,0.9,0.1,1.4,0.2
	c0.4,0.1,0.7,0.3,1,0.6c0.3,0.3,0.5,0.6,0.7,0.9c0.2,0.4,0.2,0.8,0.2,1.2c0,0.4-0.1,0.8-0.2,1.2c-0.2,0.4-0.4,0.7-0.7,0.9
	c-0.3,0.3-0.7,0.5-1,0.6c-0.4,0.1-0.9,0.2-1.4,0.2c-0.5,0-0.9-0.1-1.4-0.2c-0.4-0.1-0.7-0.3-1-0.6c-0.3-0.3-0.5-0.6-0.7-0.9
	c-0.2-0.4-0.2-0.8-0.2-1.2C8.5,17.9,8.6,17.5,8.8,17.1z M10.4,19c0,0.2,0.1,0.4,0.3,0.6c0.1,0.2,0.3,0.3,0.5,0.4
	c0.2,0.1,0.5,0.2,0.7,0.2c0.3,0,0.5,0,0.8-0.2c0.2-0.1,0.4-0.2,0.5-0.4c0.1-0.2,0.2-0.4,0.3-0.6c0-0.2,0.1-0.4,0.1-0.7
	c0-0.2,0-0.4-0.1-0.7c0-0.2-0.1-0.4-0.3-0.6c-0.1-0.2-0.3-0.3-0.5-0.4c-0.2-0.1-0.5-0.2-0.8-0.2c-0.3,0-0.5,0-0.7,0.2
	c-0.2,0.1-0.4,0.2-0.5,0.4c-0.1,0.2-0.2,0.4-0.3,0.6c0,0.2-0.1,0.4-0.1,0.7C10.3,18.6,10.3,18.8,10.4,19L10.4,19z"/>
<path class="st1" d="M18.9,16.6c-0.2,0-0.5,0-0.7,0.2c-0.2,0.1-0.3,0.3-0.5,0.4c-0.1,0.2-0.2,0.4-0.3,0.6c0,0.2-0.1,0.4-0.1,0.6
	c0,0.2,0,0.4,0.1,0.6c0,0.2,0.1,0.4,0.2,0.6c0.1,0.2,0.3,0.3,0.5,0.4c0.5,0.3,1.2,0.2,1.7-0.1c0.2-0.2,0.4-0.5,0.4-0.8h1.7
	c-0.1,0.7-0.4,1.3-1,1.7c-0.6,0.4-1.4,0.6-2.1,0.6c-0.4,0-0.9-0.1-1.3-0.2c-0.4-0.1-0.7-0.3-1-0.6c-0.3-0.3-0.5-0.6-0.7-0.9
	c-0.2-0.4-0.2-0.8-0.2-1.2c0-0.4,0.1-0.8,0.2-1.2c0.1-0.4,0.4-0.7,0.6-1c0.3-0.3,0.6-0.5,1-0.6c0.5-0.2,0.9-0.2,1.4-0.2
	c0.4,0,0.7,0,1.1,0.1c0.3,0.1,0.7,0.2,1,0.4c0.3,0.2,0.5,0.4,0.7,0.7c0.2,0.3,0.3,0.6,0.3,0.9h-1.8C20,16.9,19.6,16.6,18.9,16.6z"/>
<path class="st1" d="M48,13.4l2.1,5.3h0l2-5.3h2.7v7.7H53v-5.5h0l-2.2,5.5h-1.5l-2.2-5.4h0v5.4h-1.8v-7.7H48z"/>
<path class="st1" d="M55.8,16.4c0.2-0.2,0.4-0.4,0.7-0.6c0.3-0.2,0.6-0.3,1-0.3c0.4-0.1,0.7-0.1,1.1-0.1c0.3,0,0.7,0,1,0.1
	c0.3,0,0.6,0.1,0.9,0.2c0.3,0.1,0.5,0.3,0.7,0.5c0.2,0.2,0.3,0.5,0.3,0.8v2.9c0,0.2,0,0.5,0.1,0.7c0,0.2,0.1,0.4,0.2,0.5h-1.8
	c-0.1-0.2-0.1-0.4-0.1-0.5c-0.3,0.3-0.6,0.4-1,0.5c-0.4,0.1-0.8,0.1-1.2,0.1c-0.3,0-0.6,0-0.9-0.1c-0.3-0.1-0.5-0.2-0.7-0.3
	c-0.2-0.1-0.4-0.3-0.5-0.5c-0.1-0.2-0.2-0.5-0.2-0.7c0-0.3,0.1-0.5,0.2-0.8c0.1-0.2,0.3-0.4,0.5-0.5c0.2-0.1,0.5-0.2,0.7-0.3
	c0.3-0.1,0.5-0.1,0.8-0.1c0.3,0,0.5-0.1,0.8-0.1c0.2,0,0.5-0.1,0.7-0.1c0.2,0,0.3-0.1,0.5-0.2c0.1-0.1,0.2-0.2,0.2-0.4
	c0-0.1,0-0.3-0.1-0.4c-0.1-0.1-0.1-0.2-0.2-0.2c-0.1-0.1-0.2-0.1-0.4-0.1c-0.1,0-0.3,0-0.4,0c-0.3,0-0.6,0.1-0.8,0.2
	c-0.2,0.1-0.3,0.4-0.3,0.6h-1.8C55.5,16.9,55.6,16.6,55.8,16.4z M59.3,18.5c-0.1,0-0.2,0.1-0.4,0.1c-0.1,0-0.3,0-0.4,0.1
	s-0.3,0-0.4,0.1c-0.1,0-0.3,0.1-0.4,0.1c-0.1,0-0.2,0.1-0.3,0.1c-0.1,0.1-0.2,0.1-0.2,0.2c-0.1,0.1-0.1,0.2-0.1,0.4
	c0,0.1,0,0.2,0.1,0.3c0.1,0.1,0.1,0.2,0.2,0.2c0.1,0.1,0.2,0.1,0.3,0.1c0.1,0,0.3,0,0.4,0c0.3,0,0.6,0,0.8-0.2
	c0.2-0.1,0.3-0.2,0.4-0.4c0.1-0.1,0.1-0.3,0.2-0.4c0-0.1,0-0.2,0-0.3v-0.6C59.5,18.5,59.4,18.5,59.3,18.5L59.3,18.5z"/>
<path class="st1" d="M63.6,15.6v1h0c0.1-0.2,0.2-0.3,0.3-0.5c0.1-0.2,0.3-0.3,0.5-0.4c0.2-0.1,0.4-0.2,0.6-0.2
	c0.2-0.1,0.4-0.1,0.6-0.1c0.1,0,0.3,0,0.4,0.1v1.4c-0.1,0-0.2,0-0.3,0c-0.1,0-0.2,0-0.3,0c-0.3,0-0.6,0-0.8,0.1
	c-0.2,0.1-0.4,0.2-0.5,0.4c-0.1,0.2-0.2,0.4-0.3,0.6c-0.1,0.2-0.1,0.5-0.1,0.7v2.5h-1.8v-5.6H63.6z"/>
<path class="st1" d="M68,19.8c0.1,0.1,0.2,0.2,0.3,0.3c0.1,0.1,0.3,0.1,0.4,0.2c0.2,0,0.3,0.1,0.5,0.1c0.1,0,0.3,0,0.4,0
	c0.1,0,0.3-0.1,0.4-0.1c0.1-0.1,0.2-0.1,0.3-0.2c0.1-0.1,0.1-0.2,0.1-0.3c0-0.2-0.2-0.4-0.5-0.5c-0.5-0.1-1-0.3-1.5-0.3
	c-0.3,0-0.5-0.1-0.8-0.2c-0.2-0.1-0.4-0.2-0.6-0.3c-0.2-0.1-0.4-0.2-0.5-0.4c-0.1-0.2-0.2-0.4-0.2-0.6c0-0.3,0.1-0.6,0.2-0.9
	c0.2-0.2,0.4-0.4,0.6-0.5c0.3-0.1,0.6-0.2,0.9-0.3c0.3-0.1,0.7-0.1,1-0.1c0.3,0,0.7,0,1,0.1c0.3,0.1,0.6,0.1,0.9,0.3
	c0.2,0.1,0.5,0.3,0.6,0.5c0.2,0.3,0.3,0.6,0.3,0.9h-1.7c0-0.3-0.2-0.5-0.4-0.6c-0.3-0.1-0.5-0.2-0.8-0.2c-0.1,0-0.2,0-0.3,0
	c-0.1,0-0.2,0-0.3,0.1c-0.1,0-0.2,0.1-0.2,0.2c-0.1,0.1-0.1,0.2-0.1,0.3c0,0.1,0.1,0.2,0.2,0.3c0.1,0.1,0.3,0.2,0.5,0.2
	c0.2,0.1,0.4,0.1,0.6,0.1s0.5,0.1,0.7,0.1c0.2,0.1,0.5,0.1,0.8,0.2c0.2,0.1,0.4,0.2,0.7,0.3c0.2,0.1,0.3,0.3,0.5,0.4
	c0.1,0.2,0.2,0.4,0.2,0.7c0,0.3-0.1,0.7-0.3,0.9c-0.2,0.2-0.4,0.5-0.7,0.6c-0.3,0.2-0.6,0.3-1,0.3c-0.4,0.1-0.7,0.1-1.1,0.1
	c-0.4,0-0.7,0-1.1-0.1c-0.3-0.1-0.7-0.2-1-0.3c-0.3-0.1-0.5-0.4-0.7-0.6c-0.2-0.3-0.3-0.6-0.3-0.9h1.7C67.9,19.5,67.9,19.6,68,19.8z
	"/>
<path class="st1" d="M74.7,19.8c0.3,0.2,0.7,0.3,1.1,0.3c0.3,0,0.6-0.1,0.9-0.2c0.2-0.1,0.4-0.3,0.5-0.5h1.6
	c-0.2,0.6-0.6,1.1-1.1,1.4c-0.6,0.3-1.2,0.5-1.9,0.4c-0.5,0-0.9-0.1-1.4-0.2c-0.4-0.1-0.7-0.3-1-0.6c-0.3-0.3-0.5-0.6-0.7-0.9
	c-0.2-0.4-0.2-0.8-0.2-1.2c0-0.4,0.1-0.8,0.2-1.2c0.2-0.4,0.4-0.7,0.7-0.9c0.3-0.3,0.7-0.5,1-0.6c0.4-0.2,0.9-0.2,1.3-0.2
	c0.5,0,1,0.1,1.4,0.3c0.4,0.2,0.7,0.4,1,0.7c0.3,0.3,0.5,0.7,0.6,1.1c0.1,0.4,0.2,0.8,0.1,1.2h-4.6C74.2,19.1,74.4,19.5,74.7,19.8z
	 M76.7,16.9c-0.3-0.2-0.6-0.3-1-0.3c-0.2,0-0.5,0-0.7,0.1c-0.2,0.1-0.3,0.2-0.4,0.3c-0.1,0.1-0.2,0.2-0.2,0.4c0,0.1-0.1,0.2-0.1,0.4
	h2.9C77.1,17.4,76.9,17.1,76.7,16.9z"/>
<path class="st1" d="M84,13.4v7.7h-1.8v-7.7H84z"/>
<path class="st1" d="M86.9,13.4v7.7h-1.8v-7.7H86.9z"/>
<path class="st1" d="M87.8,16.4c0.2-0.2,0.4-0.4,0.7-0.6c0.3-0.2,0.6-0.3,1-0.3c0.4-0.1,0.7-0.1,1.1-0.1c0.3,0,0.7,0,1,0.1
	c0.3,0,0.6,0.1,0.9,0.2c0.3,0.1,0.5,0.3,0.7,0.5c0.2,0.2,0.3,0.5,0.3,0.8v2.9c0,0.2,0,0.5,0.1,0.7c0,0.2,0.1,0.4,0.2,0.5h-1.8
	c-0.1-0.2-0.1-0.4-0.1-0.5c-0.3,0.3-0.6,0.4-1,0.5c-0.4,0.1-0.8,0.1-1.2,0.1c-0.3,0-0.6,0-0.9-0.1c-0.2-0.1-0.5-0.2-0.7-0.3
	c-0.2-0.1-0.4-0.3-0.5-0.5c-0.1-0.2-0.2-0.5-0.2-0.7c0-0.3,0.1-0.5,0.2-0.8c0.1-0.2,0.3-0.4,0.5-0.5c0.2-0.1,0.5-0.2,0.7-0.3
	c0.3-0.1,0.5-0.1,0.8-0.1c0.3,0,0.5-0.1,0.8-0.1c0.2,0,0.5-0.1,0.7-0.1c0.2,0,0.3-0.1,0.5-0.2c0.1-0.1,0.2-0.2,0.2-0.4
	c0-0.1,0-0.3-0.1-0.4c-0.1-0.1-0.1-0.2-0.3-0.2c-0.1-0.1-0.2-0.1-0.4-0.1c-0.1,0-0.3,0-0.4,0c-0.3,0-0.6,0.1-0.8,0.2
	c-0.2,0.1-0.3,0.4-0.3,0.6h-1.8C87.5,16.9,87.7,16.6,87.8,16.4z M91.3,18.5c-0.1,0-0.2,0.1-0.4,0.1c-0.1,0-0.3,0-0.4,0.1
	c-0.1,0-0.3,0-0.4,0.1c-0.1,0-0.3,0.1-0.4,0.1c-0.1,0-0.2,0.1-0.3,0.1c-0.1,0.1-0.2,0.1-0.2,0.2c-0.1,0.1-0.1,0.2-0.1,0.4
	c0,0.1,0,0.2,0.1,0.3c0.1,0.1,0.1,0.2,0.2,0.2c0.1,0.1,0.2,0.1,0.3,0.1c0.1,0,0.3,0,0.4,0c0.3,0,0.6,0,0.8-0.2
	c0.2-0.1,0.3-0.2,0.4-0.4c0.1-0.1,0.1-0.3,0.2-0.4c0-0.1,0-0.2,0-0.3v-0.6C91.5,18.5,91.4,18.5,91.3,18.5L91.3,18.5z"/>
<path class="st1" d="M98.1,19.8c0.1,0.1,0.2,0.2,0.3,0.3c0.1,0.1,0.3,0.1,0.4,0.2c0.2,0,0.3,0.1,0.5,0.1c0.1,0,0.3,0,0.4,0
	c0.1,0,0.3-0.1,0.4-0.1c0.1-0.1,0.2-0.1,0.3-0.2c0.1-0.1,0.1-0.2,0.1-0.3c0-0.2-0.2-0.4-0.5-0.5c-0.5-0.1-1-0.3-1.5-0.3
	c-0.3,0-0.5-0.1-0.8-0.2c-0.2-0.1-0.4-0.2-0.6-0.3c-0.2-0.1-0.4-0.2-0.5-0.4c-0.1-0.2-0.2-0.4-0.2-0.6c0-0.3,0.1-0.6,0.2-0.9
	c0.2-0.2,0.4-0.4,0.6-0.5c0.3-0.1,0.6-0.2,0.9-0.3c0.3-0.1,0.7-0.1,1-0.1c0.3,0,0.7,0,1,0.1c0.3,0.1,0.6,0.1,0.9,0.3
	c0.2,0.1,0.5,0.3,0.6,0.5c0.2,0.3,0.3,0.6,0.3,0.9h-1.7c0-0.3-0.2-0.5-0.4-0.6c-0.3-0.1-0.5-0.2-0.8-0.2c-0.1,0-0.2,0-0.3,0
	c-0.1,0-0.2,0-0.3,0.1c-0.1,0-0.2,0.1-0.2,0.2c-0.1,0.1-0.1,0.2-0.1,0.3c0,0.1,0.1,0.2,0.2,0.3c0.1,0.1,0.3,0.2,0.5,0.2
	c0.2,0.1,0.4,0.1,0.6,0.1c0.2,0,0.5,0.1,0.7,0.1c0.2,0.1,0.5,0.1,0.8,0.2c0.2,0.1,0.4,0.2,0.7,0.3c0.2,0.1,0.3,0.3,0.5,0.4
	c0.1,0.2,0.2,0.4,0.2,0.7c0,0.3-0.1,0.6-0.3,0.9c-0.2,0.2-0.4,0.5-0.7,0.6c-0.3,0.2-0.6,0.3-1,0.3c-0.4,0.1-0.7,0.1-1.1,0.1
	c-0.4,0-0.7,0-1.1-0.1c-0.3-0.1-0.7-0.2-1-0.3c-0.3-0.1-0.5-0.4-0.7-0.6c-0.2-0.3-0.3-0.6-0.3-0.9h1.7C97.9,19.5,98,19.6,98.1,19.8z
	"/>
<path class="st1" d="M104.8,19.8c0.6,0.4,1.4,0.4,2.1,0.1c0.2-0.1,0.4-0.3,0.5-0.5h1.6c-0.2,0.6-0.6,1.1-1.1,1.4
	c-0.6,0.3-1.2,0.5-1.9,0.4c-0.5,0-0.9-0.1-1.4-0.2c-0.4-0.1-0.7-0.3-1-0.6c-0.3-0.3-0.5-0.6-0.7-0.9c-0.2-0.4-0.2-0.8-0.2-1.2
	c0-0.4,0.1-0.8,0.2-1.2c0.2-0.4,0.4-0.7,0.7-0.9c0.3-0.3,0.7-0.5,1-0.6c0.4-0.2,0.9-0.2,1.3-0.2c0.5,0,1,0.1,1.4,0.3
	c0.4,0.2,0.7,0.4,1,0.7c0.3,0.3,0.5,0.7,0.6,1.1c0.1,0.4,0.2,0.8,0.1,1.2h-4.7C104.3,19.1,104.5,19.5,104.8,19.8z M106.8,16.9
	c-0.3-0.2-0.6-0.3-1-0.3c-0.2,0-0.5,0-0.7,0.1c-0.2,0.1-0.3,0.2-0.4,0.3c-0.1,0.1-0.2,0.2-0.2,0.4c0,0.1-0.1,0.2-0.1,0.4h2.9
	C107.2,17.4,107,17.1,106.8,16.9z"/>
<path class="st1" d="M117.3,20.4c-0.2,0.3-0.5,0.5-0.8,0.7c-0.8,0.3-1.6,0.3-2.4,0c-0.3-0.1-0.7-0.4-0.9-0.7c-0.2-0.3-0.4-0.6-0.5-1
	c-0.1-0.4-0.2-0.7-0.2-1.1c0-0.4,0.1-0.7,0.2-1.1c0.1-0.3,0.3-0.7,0.5-0.9c0.2-0.3,0.6-0.5,0.9-0.6c0.4-0.2,0.8-0.3,1.2-0.2
	c0.4,0,0.7,0.1,1.1,0.2c0.3,0.1,0.6,0.4,0.8,0.6h0v-2.8h1.8v7.7h-1.7L117.3,20.4L117.3,20.4z M117.2,17.7c0-0.2-0.1-0.4-0.3-0.6
	c-0.1-0.2-0.3-0.3-0.5-0.4c-0.2-0.1-0.5-0.2-0.7-0.1c-0.3,0-0.5,0-0.7,0.1c-0.2,0.1-0.4,0.2-0.5,0.4c-0.1,0.2-0.2,0.4-0.3,0.6
	c-0.1,0.2-0.1,0.4-0.1,0.7c0,0.2,0,0.4,0.1,0.6c0.1,0.2,0.1,0.4,0.3,0.6c0.1,0.2,0.3,0.3,0.5,0.4c0.2,0.1,0.5,0.2,0.7,0.2
	c0.3,0,0.5,0,0.7-0.2c0.2-0.1,0.3-0.2,0.5-0.4c0.1-0.2,0.2-0.4,0.2-0.6c0.1-0.2,0.1-0.4,0.1-0.7C117.3,18.1,117.3,17.9,117.2,17.7z"
	/>
<path class="st1" d="M121.6,19.8c0.6,0.4,1.4,0.4,2.1,0.1c0.2-0.1,0.4-0.3,0.5-0.5h1.6c-0.2,0.6-0.6,1.1-1.1,1.4
	c-0.6,0.3-1.2,0.5-1.9,0.4c-0.5,0-0.9-0.1-1.4-0.2c-0.4-0.1-0.7-0.3-1-0.6c-0.3-0.3-0.5-0.6-0.7-0.9c-0.2-0.4-0.2-0.8-0.2-1.2
	c0-0.4,0.1-0.8,0.2-1.2c0.2-0.4,0.4-0.7,0.7-0.9c0.3-0.3,0.7-0.5,1-0.6c0.4-0.2,0.9-0.2,1.3-0.2c0.5,0,1,0.1,1.4,0.3
	c0.4,0.2,0.7,0.4,1,0.7c0.3,0.3,0.5,0.7,0.6,1.1c0.1,0.4,0.2,0.8,0.1,1.2h-4.7C121.2,19.1,121.4,19.5,121.6,19.8z M123.6,16.9
	c-0.3-0.2-0.6-0.3-1-0.3c-0.2,0-0.5,0-0.7,0.1c-0.2,0.1-0.3,0.2-0.4,0.3c-0.1,0.1-0.2,0.2-0.2,0.4c0,0.1-0.1,0.2-0.1,0.4h2.9
	C124,17.4,123.9,17.1,123.6,16.9z"/>
</svg>
